Exact Audio Copy V0.99 prebeta 4 from 23. January 2008

Отчёт EAC об извлечении, выполненном 27. июня 2008, 20:35

Guns N' Roses / Best Ballads

Дисковод: Optiarc DVD RW AD-7191S   Adapter: 2  ID: 0

Режим чтения                 : Достоверность
Использование точного потока : Да
Отключение кэша аудио        : Да
Использование указателей C2  : Нет

Коррекция смещения при чтении                     : 6
Способность читать области Lead-in и Lead-out     : Нет
Заполнение пропущенных сэмплов тишиной            : Да
Удаление блоков с тишиной в начале и конце        : Нет
При вычислениях CRC использовались нулевые сэмплы : Нет
Интерфейс                                         : Встроенный Win32-интерфейс для Win NT/2000

Выходной формат          : Пользовательский кодировщик
Выбранный битрейт        : 768 kBit/s
Качество                 : Высокий
Добавление ID3-тэга      : Нет
Утилита сжатия           : C:\Program Files\Exact Audio Copy\FLAC\FLAC.EXE
Дополнительные параметры : -6 -V -T "ARTIST=%a" -T "TITLE=%t" -T "ALBUM=%g" -T "DATE=%y" -T "TRACKNUMBER=%n" -T "GENRE=%m" -T "COMMENT=%e" %s -o %d


TOC извлечённого CD

     Трек |   Старт  | Длительность | Начальный сектор | Конечный сектор 
    ---------------------------------------------------------------------
       1  |  0:00.00 |    4:46.07   |           0      |      21456      
       2  |  4:46.07 |    4:21.50   |       21457      |      41081      
       3  |  9:07.57 |    3:15.18   |       41082      |      55724      
       4  | 12:23.00 |    5:38.00   |       55725      |      81074      
       5  | 18:01.00 |    5:54.62   |       81075      |     107686      
       6  | 23:55.62 |    5:56.58   |      107687      |     134444      
       7  | 29:52.45 |    8:55.35   |      134445      |     174604      
       8  | 38:48.05 |    6:08.07   |      174605      |     202211      
       9  | 44:56.12 |    4:09.55   |      202212      |     220941      
      10  | 49:05.67 |    7:38.53   |      220942      |     255344      
      11  | 56:44.45 |    5:08.57   |      255345      |     278501      
      12  | 61:53.27 |    3:13.68   |      278502      |     293044      
      13  | 65:07.20 |    5:19.10   |      293045      |     316979      
      14  | 70:26.30 |    2:37.45   |      316980      |     328799      


Характеристики диапазона извлечения и сообщения об ошибках

Выбранный диапазон

     Имя файла D:\Music\Guns N' Roses\Guns N' Roses - Best Ballads.wav

     Пиковый уровень 93.7 %
     Качество диапазона 100.0 %
     CRC теста 116A4811
     CRC копии 116A4811
     Копирование... OK

Ошибок не произошло

 
AccurateRip: сводка
 
Трек  1  точное извлечение (доверие 2)  [A53D43F4]
Трек  2  точное извлечение (доверие 2)  [B271B079]
Трек  3  точное извлечение (доверие 2)  [CAA0E616]
Трек  4  точное извлечение (доверие 2)  [6153BA5A]
Трек  5  точное извлечение (доверие 2)  [45FE0B5E]
Трек  6  точное извлечение (доверие 2)  [8D57D43E]
Трек  7  точное извлечение (доверие 2)  [1914BFB7]
Трек  8  точное извлечение (доверие 2)  [A75D5A30]
Трек  9  точное извлечение (доверие 2)  [BC99CCD5]
Трек 10  точное извлечение (доверие 2)  [68797414]
Трек 11  точное извлечение (доверие 2)  [268095EB]
Трек 12  точное извлечение (доверие 2)  [4E3DB702]
Трек 13  точное извлечение (доверие 2)  [B3013864]
Трек 14  точное извлечение (доверие 2)  [0AA0123F]
 
Все треки извлечены точно

Конец отчёта
